<svg width="16" height="16" viewBox="0 0 16 16" fill="none" xmlns="http://www.w3.org/2000/svg">
<g clip-path="url(#clip0_23_32420)">
<path d="M2.34317 2.34311L4.46449 4.46443M6.70558 3.16914L5.92893 0.270645M9.29441 3.16913L10.0711 0.27063M11.5355 4.4644L13.6568 2.34308M12.8308 6.7055L15.7293 5.92885M12.8309 9.29436L15.7294 10.071M11.5356 11.5355L13.6569 13.6568M10.0711 15.7293L9.29441 12.8308M5.92893 15.7293L6.70558 12.8308M2.34314 13.6568L4.46446 11.5355M0.270691 10.071L3.16919 9.29433M0.270706 5.92888L3.1692 6.70553M11.5 8.00002C11.5 9.93302 9.93302 11.5 8.00003 11.5C6.06703 11.5 4.50003 9.93302 4.50003 8.00002C4.50003 6.06702 6.06703 4.50002 8.00003 4.50002C9.93302 4.50002 11.5 6.06702 11.5 8.00002Z" stroke="white"/>
</g>
<defs>
<clipPath id="clip0_23_32420">
<rect width="16" height="16" fill="white"/>
</clipPath>
</defs>
</svg>
