<svg width="16" height="16" viewBox="0 0 16 16" fill="none" xmlns="http://www.w3.org/2000/svg">
<mask id="path-1-inside-1_23_32421" fill="white">
<path fill-rule="evenodd" clip-rule="evenodd" d="M8 15C11.866 15 15 11.866 15 8C15 4.13401 11.866 1 8 1C7.52413 1 7.05935 1.04748 6.61015 1.13797C8.55856 1.63234 10 3.39784 10 5.5C10 7.98528 7.98528 10 5.5 10C3.39784 10 1.63234 8.55856 1.13797 6.61015C1.04748 7.05935 1 7.52413 1 8C1 11.866 4.13401 15 8 15Z"/>
</mask>
<path d="M6.61015 1.13797L6.41267 0.157666L6.36421 2.10726L6.61015 1.13797ZM1.13797 6.61015L2.10726 6.36421L0.157666 6.41267L1.13797 6.61015ZM14 8C14 11.3137 11.3137 14 8 14V16C12.4183 16 16 12.4183 16 8H14ZM8 2C11.3137 2 14 4.68629 14 8H16C16 3.58172 12.4183 0 8 0V2ZM6.80762 2.11828C7.19218 2.04081 7.59081 2 8 2V0C7.45745 0 6.92653 0.0541539 6.41267 0.157666L6.80762 2.11828ZM6.36421 2.10726C7.87982 2.49181 9 3.86634 9 5.5H11C11 2.92933 9.2373 0.772865 6.85608 0.168687L6.36421 2.10726ZM9 5.5C9 7.433 7.433 9 5.5 9V11C8.53757 11 11 8.53757 11 5.5H9ZM5.5 9C3.86634 9 2.49181 7.87982 2.10726 6.36421L0.168687 6.85608C0.772865 9.2373 2.92933 11 5.5 11V9ZM2 8C2 7.59081 2.04081 7.19218 2.11828 6.80762L0.157666 6.41267C0.0541539 6.92653 0 7.45745 0 8H2ZM8 14C4.68629 14 2 11.3137 2 8H0C0 12.4183 3.58172 16 8 16V14Z" fill="white" mask="url(#path-1-inside-1_23_32421)"/>
</svg>
