<svg width="16" height="16" viewBox="0 0 16 16" fill="none" xmlns="http://www.w3.org/2000/svg">
    <path d="M7.5 5V5.5H8H15C15.2761 5.5 15.5 5.72386 15.5 6V8.79289L13.7929 10.5H12.2071L11.3536 9.64645L11 9.29289L10.6464 9.64645L9.79289 10.5H8H7.5V11V11.4384C7.5 12.1267 7.03155 12.7267 6.3638 12.8937L2.3638 13.8937C1.41708 14.1303 0.5 13.4143 0.5 12.4384V3.56155C0.5 2.5857 1.41708 1.86966 2.3638 2.10634L6.3638 3.10634C7.03155 3.27328 7.5 3.87325 7.5 4.56155V5Z" stroke="#FFFFFF" />
    <path d="M3 6H4V10H3V6Z" fill="#FFFFFF" />
</svg>
