<svg width="360" height="500" viewBox="0 0 360 500" fill="none" xmlns="http://www.w3.org/2000/svg">
<path d="M0 16.0256C0 7.17492 7.19542 0 16.0714 0H343.929C352.805 0 360 7.17492 360 16.0256V483.974C360 492.825 352.805 500 343.929 500H16.0714C7.19543 500 0 492.825 0 483.974V16.0256Z" fill="#05050F"/>
<path d="M180 10.1496L179.866 10.1497L179.732 10.1496C163.167 10.2024 152.124 15.1487 148.661 17.6282L144.911 13.6218C138.304 16.3818 120.536 21.9017 102.321 21.9017C84.1071 21.9017 70.4464 15.4915 65.8929 12.2863C65 12.9095 62.7321 14.6368 60.8036 16.5598C58.875 18.4829 57.6786 20.9224 57.3214 21.9017C55.1786 21.9017 48.6429 21.7949 39.6429 21.3675C30.6429 20.9402 23.0357 16.0256 20.3571 13.6218C19.9107 14.245 18.1607 16.7201 14.7321 21.6346C10.4464 27.7778 10.1786 33.1197 13.3929 37.9274C15.9643 41.7735 12.3214 43.2692 10.1786 43.5363C10.0893 44.3376 10.1786 46.8483 11.25 50.4808C11.8951 52.6678 13.2198 55.2227 14.4643 57.3178V415.598C14.4643 425.509 18.3313 434.52 24.6429 441.212V463.141H159.396C161.054 458.593 169.648 455.128 180 455.128C190.352 455.128 198.946 458.593 200.604 463.141H279.423C280.494 470.21 283.929 473.825 283.929 473.825H335.357C335.357 473.825 340.179 469.551 340.179 458.868C340.179 448.184 335.357 443.91 335.357 443.91V441.212C341.669 434.52 345.536 425.509 345.536 415.598V57.2634C346.772 55.1786 348.082 52.6489 348.722 50.4808C349.795 46.8483 349.885 44.3376 349.795 43.5363C347.649 43.2692 344.001 41.7735 346.576 37.9274C349.795 33.1197 349.527 27.7778 345.235 21.6346C341.802 16.7201 340.049 14.245 339.602 13.6218C336.92 16.0256 329.302 20.9402 320.289 21.3675C311.276 21.7949 304.731 21.9017 302.585 21.9017C302.228 20.9224 301.03 18.4829 299.098 16.5598C297.167 14.6368 294.896 12.9095 294.002 12.2863C289.442 15.4915 275.761 21.9017 257.521 21.9017C239.281 21.9017 221.488 16.3818 214.871 13.6218L211.116 17.6282C207.648 15.1486 196.589 10.2024 180 10.1496Z" fill="#1A1A27"/>
<path d="M195.536 465.812C195.536 470.237 188.58 473.825 180 473.825C171.42 473.825 164.464 470.237 164.464 465.812C164.464 461.387 171.42 457.799 180 457.799C188.58 457.799 195.536 461.387 195.536 465.812Z" fill="#1A1A27"/>
<path d="M26.25 25.1068H333.48C333.48 25.1068 339.107 28.0449 339.107 38.7286C339.107 49.4124 333.48 52.3504 333.48 52.3504H26.25C26.25 52.3504 20.625 49.4124 20.625 38.7286C20.625 28.0449 26.25 25.1068 26.25 25.1068Z" fill="#E6E6FF" fill-opacity="0.1"/>
<path d="M26.25 282.585H333.48C333.48 282.585 339.107 285.524 339.107 296.207C339.107 306.891 333.48 309.829 333.48 309.829H26.25C26.25 309.829 20.625 306.891 20.625 296.207C20.625 285.524 26.25 282.585 26.25 282.585Z" fill="#E6E6FF" fill-opacity="0.1"/>
<path d="M30 57.6923H330V277.244H30V57.6923Z" fill="#E6E6FF" fill-opacity="0.1"/>
<path d="M30 457.799V315.171H330V443.91H283.929C283.929 443.91 279.454 448.619 279.126 457.799H203.564C201.736 455.667 199.252 454.122 197.018 453.094C192.387 450.963 186.364 449.786 180 449.786C173.636 449.786 167.613 450.963 162.982 453.094C160.748 454.122 158.264 455.667 156.436 457.799H30Z" fill="#E6E6FF" fill-opacity="0.1"/>
<path d="M286.729 449.252C286.605 449.478 286.477 449.725 286.347 449.995C285.446 451.867 284.464 454.821 284.464 458.868C284.464 462.914 285.446 465.868 286.347 467.74C286.427 467.905 286.505 468.061 286.583 468.21C286.632 468.304 286.681 468.395 286.729 468.483H332.7C332.79 468.324 332.882 468.151 332.976 467.964C333.812 466.297 334.821 463.375 334.821 458.868C334.821 454.36 333.812 451.438 332.976 449.771C332.934 449.688 332.893 449.607 332.852 449.53C332.801 449.433 332.75 449.34 332.7 449.252H286.729Z" fill="#E6E6FF" fill-opacity="0.1"/>
</svg>
