<svg width="32" height="32" viewBox="0 0 32 32" fill="none" xmlns="http://www.w3.org/2000/svg">
<rect width="32" height="32" fill="#151515"/>
<path d="M5.5 10H22C24.4853 10 26.5 12.0147 26.5 14.5C26.5 16.1129 25.6515 17.5275 24.3765 18.322L26.5 22H25.634C24.0263 22 22.5407 21.1423 21.7369 19.75L21.3039 19H19V22C17.3431 22 16 20.6569 16 19V16H22C22.8284 16 23.5 15.3284 23.5 14.5C23.5 13.6716 22.8284 13 22 13H13V22C11.3431 22 10 20.6569 10 19V13H8.5C6.84315 13 5.5 11.6569 5.5 10Z" fill="white"/>
</svg>
