<svg width="24" height="24" viewBox="0 0 24 24" fill="CurrentColor" xmlns="http://www.w3.org/2000/svg">
<path d="M20.7071 5.70711C21.0976 5.31658 21.0976 4.68342 20.7071 4.29289C20.3166 3.90237 19.6834 3.90237 19.2929 4.29289L12 11.5858L9.70711 9.29289C9.31658 8.90237 8.68342 8.90237 8.29289 9.29289C7.90237 9.68342 7.90237 10.3166 8.29289 10.7071L11.2929 13.7071C11.6834 14.0976 12.3166 14.0976 12.7071 13.7071L20.7071 5.70711Z" />
<path d="M19 16L19 8.82843L17 10.8284V16C17 16.5523 16.5523 17 16 17H8C7.44772 17 7 16.5523 7 16L7 8C7 7.44772 7.44772 7 8 7H15.1716L17.0006 5.17093C16.6877 5.06024 16.3509 5 16 5L8 5C6.34315 5 5 6.34315 5 8L5 16C5 17.6569 6.34315 19 8 19H16C17.6569 19 19 17.6569 19 16Z" />
</svg>
