<svg width="24" height="24" viewBox="0 0 24 24" fill="CurrentColor" xmlns="http://www.w3.org/2000/svg">
<path d="M10.6984 13.2014L6 9.17422V8H7.70326L12 11.6829L16.2967 8L18 8V9.17422L13.3016 13.2014C12.5526 13.8434 11.4474 13.8434 10.6984 13.2014Z" />
<path fill-rule="evenodd" clip-rule="evenodd" d="M3 8C3 6.34315 4.34315 5 6 5L18 5C19.6569 5 21 6.34315 21 8V16C21 17.6569 19.6569 19 18 19H6C4.34315 19 3 17.6569 3 16L3 8ZM6 7H18C18.5523 7 19 7.44772 19 8V16C19 16.5523 18.5523 17 18 17H6C5.44772 17 5 16.5523 5 16L5 8C5 7.44772 5.44772 7 6 7Z" />
</svg>
