<svg width="24" height="24" viewBox="0 0 24 24" fill="currentColor" xmlns="http://www.w3.org/2000/svg">
<path fill-rule="evenodd" clip-rule="evenodd" d="M15.3344 13.7259C16.3567 12.8104 17 11.4803 17 10C17 7.23858 14.7614 5 12 5C9.23859 5 7.00001 7.23858 7.00001 10C7.00001 11.4803 7.64331 12.8104 8.6656 13.7259C6.90649 14.5336 5.49078 15.9606 4.69768 17.7277C4.41777 18.3514 4.91798 19 5.60159 19C6.04498 19 6.43226 18.716 6.63061 18.3194C7.61506 16.3513 9.64972 15 12 15C14.3503 15 16.385 16.3513 17.3694 18.3194C17.5678 18.716 17.955 19 18.3984 19C19.082 19 19.5822 18.3514 19.3023 17.7277C18.5092 15.9606 17.0935 14.5336 15.3344 13.7259ZM15 10C15 11.6569 13.6569 13 12 13C10.3432 13 9.00001 11.6569 9.00001 10C9.00001 8.34315 10.3432 7 12 7C13.6569 7 15 8.34315 15 10Z" />
</svg>
