<svg width="24" height="24" viewBox="0 0 24 24" fill="currentColor" xmlns="http://www.w3.org/2000/svg">
<path d="M13 7.24264V10L15.7574 10L16 10.2426V12L13 12C11.8954 12 11 11.1046 11 10L11 7L12.7574 7L13 7.24264Z" />
<path fill-rule="evenodd" clip-rule="evenodd" d="M19 17L19 9L14 4L8 4C6.34315 4 5 5.34315 5 7L5 17C5 18.6569 6.34315 20 8 20H16C17.6569 20 19 18.6569 19 17ZM8 6C7.44771 6 7 6.44772 7 7V17C7 17.5523 7.44772 18 8 18L16 18C16.5523 18 17 17.5523 17 17L17 9.82843L13.1716 6L8 6Z" />
</svg>
