<svg width="512" height="512" viewBox="0 0 512 512" fill="none" xmlns="http://www.w3.org/2000/svg">
<rect width="512" height="512" rx="256" fill="url(#paint0_linear_31_11)"/>
<rect width="512" height="512" rx="256" fill="black"/>
<path d="M144 192H320C346.51 192 368 213.49 368 240C368 257.204 358.949 272.294 345.349 280.768L368 320H358.762C341.614 320 325.768 310.851 317.193 296L312.574 288H288V320C270.327 320 256 305.673 256 288V256H320C328.837 256 336 248.837 336 240C336 231.163 328.837 224 320 224H224V320C206.327 320 192 305.673 192 288V224H176C158.327 224 144 209.673 144 192Z" fill="white"/>
<defs>
<linearGradient id="paint0_linear_31_11" x1="512" y1="-6.44531e-05" x2="-3.41796e-06" y2="512" gradientUnits="userSpaceOnUse">
<stop stop-color="#FF9B9B"/>
<stop offset="1" stop-color="#B487FF"/>
</linearGradient>
</defs>
</svg>
